<?xml version="1.0" encoding="utf-8"?>
<!-- Generator: Adobe Illustrator 21.1.0, SVG Export Plug-In . SVG Version: 6.00 Build 0)  -->
<svg version="1.1" id="Layer_1" xmlns="http://www.w3.org/2000/svg" xmlns:xlink="http://www.w3.org/1999/xlink" x="0px" y="0px"
	 viewBox="0 0 1355 314" style="enable-background:new 0 0 1355 314;" xml:space="preserve">
<style type="text/css">
	.st0{fill-rule:evenodd;clip-rule:evenodd;fill:#00D191;}
	.st1{fill-rule:evenodd;clip-rule:evenodd;fill:#5E5E5E;}
	.st2{fill-rule:evenodd;clip-rule:evenodd;fill:#A5A5A5;}
	.st3{fill:#A5A5A5;}
</style>
<polygon class="st0" points="12.6,79.5 201,79.5 208.6,79.5 208.6,87.1 208.6,275.6 208.6,283.1 201,283.1 142,283.1 153.3,268 
	193.5,268 193.5,94.7 20.1,94.7 20.1,268 60.3,268 71.6,283.1 12.6,283.1 5,283.1 5,275.6 5,87.1 5,79.5 "/>
<path class="st1" d="M106.8,113.6c-39.3,0-71.2,31.9-71.2,71.2c0,16,5.3,30.8,14.2,42.7l57,68.4l57-68.4
	c8.9-11.9,14.2-26.7,14.2-42.7C178,145.5,146.1,113.6,106.8,113.6L106.8,113.6z M106.8,222c-20.5,0-37.2-16.6-37.2-37.2
	c0-20.5,16.6-37.2,37.2-37.2c20.5,0,37.2,16.6,37.2,37.2C144,205.3,127.3,222,106.8,222z"/>
<path class="st1" d="M1279.3,111.5h29.7v17.4c3.2-6.8,7.4-12,12.7-15.5c5.3-3.5,11.1-5.3,17.3-5.3c4.4,0,9.1,1.2,14,3.5l-10.7,29.7
	c-4-2-7.3-3-9.9-3c-5.3,0-9.7,3.3-13.4,9.8c-3.7,6.5-5.5,19.4-5.5,38.5l0.1,6.7v55.4h-34.4V111.5L1279.3,111.5z M1233.3,162.9
	c-2.3-7.5-6.8-13.6-13.4-18.3c-6.7-4.7-14.5-7-23.3-7c-9.6,0-18,2.6-25.3,7.9c-4.5,3.3-8.8,9.1-12.6,17.4H1233.3L1233.3,162.9z
	 M1267.5,189.8H1157c1.6,9.8,5.9,17.6,12.8,23.4c6.9,5.8,15.7,8.7,26.4,8.7c12.8,0,23.8-4.5,33-13.6l28.9,13.7
	c-7.2,10.2-15.8,17.8-25.9,22.8c-10.1,4.9-22,7.4-35.8,7.4c-21.5,0-38.9-6.8-52.4-20.3c-13.5-13.5-20.2-30.5-20.2-50.9
	c0-20.9,6.8-38.2,20.2-52c13.5-13.8,30.4-20.7,50.8-20.7c21.6,0,39.2,6.9,52.7,20.6c13.5,13.8,20.3,31.9,20.3,54.5L1267.5,189.8
	L1267.5,189.8z M994.8,58.5h34.4V168l50.8-56.6h43l-58.8,65.5l66.2,71.7h-42.8l-58.4-63.3v63.3h-34.4V58.5L994.8,58.5z M907.7,111.5
	h29.7v17.4c3.2-6.8,7.4-12,12.7-15.5c5.3-3.5,11.1-5.3,17.3-5.3c4.4,0,9.1,1.2,14,3.5l-10.7,29.7c-4-2-7.3-3-9.9-3
	c-5.3,0-9.7,3.3-13.3,9.8c-3.7,6.5-5.5,19.4-5.5,38.5l0.1,6.7v55.4h-34.4V111.5L907.7,111.5z M824.5,140.4
	c-10.7,0-19.6,3.7-26.7,11.1C790.6,159,787,168.5,787,180c0,11.9,3.5,21.5,10.6,28.9c7,7.4,15.9,11.1,26.7,11.1
	c10.8,0,19.7-3.8,26.9-11.2c7.2-7.4,10.7-17.1,10.7-28.8c0-11.8-3.5-21.3-10.6-28.6C844.4,144.1,835.4,140.4,824.5,140.4
	L824.5,140.4z M824,108.1c13,0,25.2,3.2,36.6,9.7c11.5,6.5,20.3,15.2,26.8,26.3c6.4,11.1,9.6,23,9.6,35.9c0,12.9-3.2,25-9.6,36.2
	c-6.5,11.2-15.2,20-26.4,26.4c-11.2,6.3-23.4,9.5-36.8,9.5c-19.7,0-36.6-7-50.5-20.9c-14-14-20.9-31-20.9-50.9
	c0-21.4,7.9-39.2,23.6-53.5C790.1,114.3,806,108.1,824,108.1L824,108.1z M555.4,111.5h33.4l27.8,78.1l29.7-78.1h20.7l29.2,77.2
	l27.7-77.2h33.6l-49.7,137.2h-21.8l-29.6-78.2l-30.1,78.2h-21.6L555.4,111.5z"/>
<path class="st0" d="M480.9,140.4c-10.7,0-19.6,3.7-26.8,11.1c-7.1,7.4-10.7,16.9-10.7,28.5c0,11.9,3.5,21.5,10.6,28.9
	c7,7.4,15.9,11.1,26.8,11.1c10.8,0,19.7-3.8,26.9-11.2c7.2-7.4,10.7-17.1,10.7-28.8c0-11.8-3.5-21.3-10.6-28.6
	C500.9,144.1,491.9,140.4,480.9,140.4L480.9,140.4z M480.4,108.1c13,0,25.2,3.2,36.6,9.7c11.5,6.5,20.3,15.2,26.8,26.3
	c6.4,11.1,9.6,23,9.6,35.9c0,12.9-3.2,25-9.7,36.2c-6.5,11.2-15.2,20-26.4,26.4c-11.2,6.3-23.4,9.5-36.8,9.5
	c-19.7,0-36.6-7-50.5-20.9c-14-14-20.9-31-20.9-50.9c0-21.4,7.9-39.2,23.6-53.5C446.6,114.3,462.4,108.1,480.4,108.1L480.4,108.1z
	 M396.3,139.4l-28.6,15.8c-5.4-5.6-10.7-9.5-15.9-11.7c-5.3-2.2-11.4-3.3-18.5-3.3c-12.9,0-23.3,3.8-31.2,11.5
	c-8,7.7-11.9,17.4-11.9,29.4c0,11.6,3.8,21.1,11.5,28.5c7.7,7.4,17.7,11,30.2,11c15.4,0,27.4-5.3,36-15.8l27.1,18.6
	c-14.7,19.1-35.5,28.7-62.3,28.7c-24.2,0-43.1-7.2-56.7-21.4c-13.7-14.3-20.5-30.9-20.5-50.1c0-13.3,3.3-25.5,10-36.6
	c6.7-11.2,15.9-19.9,27.9-26.3c11.9-6.4,25.2-9.6,39.9-9.6c13.7,0,25.9,2.7,36.7,8.1C380.6,121.7,389.4,129.4,396.3,139.4z"/>
<path class="st2" d="M467.9,277.9h6.3l4.9,21.6l6-21.6h5.3l6.2,21.6l4.9-21.6h6.3l-7.7,33.8h-6.2l-6.2-21.9l-6.1,21.9h-6.1
	L467.9,277.9L467.9,277.9z M542.2,277c4.8,0,8.9,1.7,12.3,5.2c3.4,3.5,5.2,7.7,5.2,12.7c0,4.9-1.7,9.1-5.1,12.5
	c-3.4,3.4-7.5,5.1-12.4,5.1c-5.1,0-9.3-1.8-12.7-5.3c-3.4-3.5-5-7.7-5-12.5c0-3.2,0.8-6.2,2.3-8.9c1.6-2.7,3.7-4.9,6.4-6.5
	C536.1,277.8,539.1,277,542.2,277L542.2,277z M542.1,283.3c-3.1,0-5.7,1.1-7.9,3.3c-2.1,2.2-3.2,4.9-3.2,8.3c0,3.7,1.3,6.7,4,8.9
	c2.1,1.7,4.5,2.6,7.2,2.6c3,0,5.6-1.1,7.8-3.3c2.2-2.2,3.2-4.9,3.2-8.2c0-3.2-1.1-5.9-3.2-8.2C547.8,284.4,545.2,283.3,542.1,283.3
	L542.1,283.3z M579.6,277.9h6.8c3.7,0,6.4,0.3,8,1c1.6,0.7,2.9,1.8,3.8,3.3c1,1.5,1.5,3.4,1.5,5.5c0,2.2-0.5,4.1-1.6,5.6
	c-1.1,1.5-2.7,2.6-4.8,3.4l8,15h-7l-7.6-14.3H586v14.3h-6.4V277.9L579.6,277.9z M586,291.1h2c2.1,0,3.5-0.3,4.3-0.8
	c0.8-0.5,1.2-1.4,1.2-2.7c0-0.7-0.2-1.4-0.6-1.9c-0.4-0.6-0.9-0.9-1.6-1.2c-0.6-0.2-1.8-0.4-3.6-0.4H586V291.1L586,291.1z
	 M619.9,277.9h6.5v11.7l9.2-11.7h7.8L631.5,293l13,18.7h-7.6l-10.4-15.1v15.1h-6.5V277.9L619.9,277.9z M676.2,277
	c4.8,0,8.9,1.7,12.3,5.2c3.4,3.5,5.2,7.7,5.2,12.7c0,4.9-1.7,9.1-5.1,12.5c-3.4,3.4-7.5,5.1-12.4,5.1c-5.1,0-9.3-1.8-12.7-5.3
	c-3.4-3.5-5-7.7-5-12.5c0-3.2,0.8-6.2,2.3-8.9c1.6-2.7,3.7-4.9,6.4-6.5C670.1,277.8,673.1,277,676.2,277L676.2,277z M676.1,283.3
	c-3.1,0-5.7,1.1-7.9,3.3c-2.1,2.2-3.2,4.9-3.2,8.3c0,3.7,1.3,6.7,4,8.9c2.1,1.7,4.5,2.6,7.2,2.6c3,0,5.6-1.1,7.8-3.3
	c2.1-2.2,3.2-4.9,3.2-8.2c0-3.2-1.1-5.9-3.2-8.2C681.8,284.4,679.2,283.3,676.1,283.3L676.1,283.3z M713,277.9h6.5v21.9
	c0,1.9,0.2,3.2,0.5,4c0.3,0.8,0.9,1.4,1.6,1.9c0.8,0.5,1.7,0.7,2.7,0.7c1.1,0,2.1-0.3,2.9-0.8c0.8-0.5,1.4-1.2,1.7-2
	c0.3-0.8,0.5-2.3,0.5-4.6v-21.1h6.5V298c0,3.4-0.2,5.8-0.6,7.1c-0.4,1.3-1.1,2.6-2.2,3.8c-1.1,1.2-2.3,2.1-3.7,2.7
	c-1.4,0.6-3,0.9-4.9,0.9c-2.5,0-4.6-0.6-6.4-1.7c-1.8-1.1-3.1-2.5-3.9-4.2c-0.8-1.7-1.2-4.6-1.2-8.6V277.9L713,277.9z M753.4,277.9
	h18.7v6.4H766v27.5h-6.5v-27.5h-6V277.9L753.4,277.9z M807.6,282.5l-4.8,4.2c-1.7-2.3-3.4-3.5-5.1-3.5c-0.8,0-1.5,0.2-2.1,0.7
	c-0.5,0.5-0.8,1-0.8,1.5c0,0.6,0.2,1.1,0.6,1.6c0.5,0.7,2.1,2.1,4.7,4.3c2.5,2.1,3.9,3.3,4.5,3.9c1.3,1.3,2.2,2.6,2.8,3.8
	c0.5,1.2,0.8,2.5,0.8,3.9c0,2.8-1,5.1-2.9,6.9c-1.9,1.8-4.4,2.7-7.5,2.7c-2.4,0-4.5-0.6-6.3-1.8c-1.8-1.2-3.3-3-4.6-5.6l5.4-3.3
	c1.6,3,3.5,4.5,5.6,4.5c1.1,0,2-0.3,2.8-1c0.8-0.6,1.1-1.4,1.1-2.2c0-0.8-0.3-1.5-0.9-2.3c-0.6-0.8-1.8-1.9-3.8-3.5
	c-3.7-3-6.1-5.3-7.1-7c-1.1-1.6-1.6-3.3-1.6-4.9c0-2.3,0.9-4.4,2.7-6c1.8-1.7,4-2.5,6.6-2.5c1.7,0,3.3,0.4,4.8,1.2
	C804.2,279,805.8,280.4,807.6,282.5L807.6,282.5z M827.2,277.9h6.4v33.8h-6.4V277.9L827.2,277.9z M854.3,277.9h7.6
	c4.9,0,8.6,0.6,11,1.8c2.4,1.2,4.4,3.2,5.9,5.9c1.5,2.7,2.3,6,2.3,9.6c0,2.6-0.4,5-1.3,7.2c-0.9,2.2-2.1,4-3.6,5.4
	c-1.5,1.4-3.2,2.4-4.9,3c-1.8,0.6-4.9,0.8-9.2,0.8h-7.7V277.9L854.3,277.9z M860.7,284.1v21.3h3c2.9,0,5.1-0.3,6.4-1
	c1.3-0.7,2.4-1.8,3.3-3.4c0.8-1.6,1.3-3.6,1.3-5.9c0-3.6-1-6.4-3-8.4c-1.8-1.8-4.7-2.7-8.7-2.7H860.7L860.7,284.1z M900.6,277.9
	h18.5v6.3H907v6.1h12.1v6.2H907v8.9h12.1v6.3h-18.5V277.9L900.6,277.9z M938.7,277.9h18.7v6.4h-6.2v27.5h-6.6v-27.5h-6V277.9
	L938.7,277.9z M975.1,277.9h6.5v12.8h11.3v-12.8h6.5v33.8h-6.5v-14.8h-11.3v14.8h-6.5V277.9L975.1,277.9z M1020.6,277.9h18.5v6.3
	H1027v6.1h12.1v6.2H1027v8.9h12.1v6.3h-18.5V277.9L1020.6,277.9z M1061.9,311.7v-33.8h5.3c3.1,0,5.4,0.2,6.8,0.6
	c2,0.5,3.6,1.5,4.9,3c1.2,1.5,1.8,3.2,1.8,5.2c0,1.3-0.3,2.5-0.8,3.5c-0.5,1.1-1.4,2-2.7,3c2,1,3.5,2.2,4.5,3.6
	c0.9,1.4,1.4,3.2,1.4,5.1c0,1.9-0.5,3.6-1.5,5.2c-1,1.6-2.3,2.7-3.8,3.5c-1.6,0.8-3.7,1.2-6.4,1.2H1061.9L1061.9,311.7z M1068.3,284
	v7.2h1.4c1.6,0,2.8-0.3,3.6-1c0.8-0.7,1.2-1.6,1.2-2.7c0-1.1-0.4-1.9-1.1-2.5c-0.7-0.6-1.9-0.9-3.4-0.9H1068.3L1068.3,284z
	 M1068.3,296.9v8.7h1.6c2.7,0,4.5-0.3,5.5-1c0.9-0.7,1.4-1.7,1.4-2.9c0-1.4-0.6-2.6-1.7-3.4c-1.1-0.8-2.9-1.3-5.5-1.3H1068.3
	L1068.3,296.9z M1118.6,277c4.8,0,8.9,1.7,12.3,5.2c3.4,3.5,5.2,7.7,5.2,12.7c0,4.9-1.7,9.1-5.1,12.5c-3.4,3.4-7.5,5.1-12.4,5.1
	c-5.1,0-9.3-1.8-12.7-5.3c-3.4-3.5-5-7.7-5-12.5c0-3.2,0.8-6.2,2.3-8.9c1.6-2.7,3.7-4.9,6.4-6.5C1112.5,277.8,1115.4,277,1118.6,277
	L1118.6,277z M1118.5,283.3c-3.1,0-5.7,1.1-7.9,3.3c-2.1,2.2-3.2,4.9-3.2,8.3c0,3.7,1.3,6.7,4,8.9c2.1,1.7,4.5,2.6,7.2,2.6
	c3,0,5.6-1.1,7.8-3.3c2.1-2.2,3.2-4.9,3.2-8.2c0-3.2-1.1-5.9-3.2-8.2C1124.2,284.4,1121.6,283.3,1118.5,283.3L1118.5,283.3z
	 M1153.3,277.9h7.3l7.1,10.9l7.1-10.9h7.3l-10.8,16.4l11.4,17.4h-7.3l-7.7-11.8l-7.7,11.8h-7.3l11.4-17.4L1153.3,277.9z"/>
<path class="st0" d="M67.1,4h1.4h1.3C77.4,4,84,9.9,83.6,17.2L83,26.6c-0.3,5.6-4.8,10.4-10.8,12.3c-2.5,0.8-3.8,1-6.3,0.4
	c-6.5-1.5-11.7-6.7-12.1-12.7l-0.6-9.5C52.8,9.9,59.5,4,67.1,4z"/>
<path class="st0" d="M82.5,74.7H71.4c0.2-0.5,0.3-1,0.3-1.5c0-0.3,0-0.5-0.1-0.8l0,0l0-0.2h9.5c0.4,0,0.7,0.2,1,0.4
	c0.2,0.3,0.4,0.6,0.4,1V74.7z"/>
<path class="st0" d="M93.1,48c-2.6-3.7-6.3-6.6-10.6-8.1c-1,0.9-2.2,1.7-3.3,2.3c-1.4,0.8-3,1.5-4.6,2.1v0c-0.9,0.3-1.6,0.5-2.4,0.7
	c-0.8,0.2-1.6,0.3-2.5,0.4c-0.9,0.1-1.8,0.1-2.7,0h0c-0.9-0.1-1.8-0.3-2.8-0.5c-1.7-0.4-3.4-1.1-5-1.8v0c-1.3-0.6-2.5-1.4-3.7-2.3
	c-1.7,0.8-3.2,1.8-4.7,3h0c-0.9,0.7-1.7,1.6-2.5,2.5h12.6c0.9,0,1.7,0.2,2.5,0.4l0,0c0.8,0.3,1.5,0.7,2.2,1.2l0,0
	c0.6,0.5,1.1,1.1,1.6,1.8l0,0c0.4,0.7,0.7,1.4,0.9,2.2l3.2,15.8H81c0.8,0,1.5,0.2,2.2,0.4v0c0.7,0.3,1.3,0.7,1.9,1.3
	c0.5,0.5,1,1.2,1.3,1.9c0.2,0.5,0.6,2.7,0.6,3.2h10.5V61.9C97.5,56.7,95.8,51.9,93.1,48z"/>
<path class="st0" d="M25.8,50.4h35.4c1.3,0,2.3,0.9,2.5,2.1l4,20.1c0.2,1.1-0.8,2.1-2,2.1H29.9c-1.3,0-2.3-0.9-2.5-2.1l-3.6-20.1
	C23.6,51.4,24.6,50.4,25.8,50.4z"/>
<path class="st0" d="M146.5,4h-1.4h-1.4c-7.6,0-14.2,5.9-13.8,13.2l0.6,9.5c0.3,5.6,4.8,10.4,10.8,12.3c2.5,0.8,3.8,1,6.3,0.4
	c6.5-1.5,11.7-6.7,12.1-12.7l0.6-9.5C160.8,9.9,154.1,4,146.5,4z"/>
<path class="st0" d="M131.1,74.7h11.1c-0.2-0.5-0.3-1-0.3-1.5c0-0.3,0-0.5,0.1-0.8l0,0l0-0.2h-9.5c-0.4,0-0.7,0.2-1,0.4
	c-0.2,0.3-0.4,0.6-0.4,1V74.7z"/>
<path class="st0" d="M120.5,48c2.6-3.7,6.3-6.6,10.6-8.1c1,0.9,2.2,1.7,3.3,2.3c1.4,0.8,3,1.5,4.6,2.1v0c0.9,0.3,1.6,0.5,2.4,0.7
	c0.8,0.2,1.6,0.3,2.5,0.4c0.9,0.1,1.8,0.1,2.7,0h0c0.9-0.1,1.8-0.3,2.8-0.5c1.7-0.4,3.4-1.1,5-1.8v0c1.3-0.6,2.5-1.4,3.7-2.3
	c1.7,0.8,3.2,1.8,4.7,3h0c0.9,0.7,1.7,1.6,2.5,2.5h-12.6c-0.9,0-1.7,0.2-2.5,0.4l0,0c-0.8,0.3-1.5,0.7-2.2,1.2l0,0
	c-0.6,0.5-1.1,1.1-1.6,1.8l0,0c-0.4,0.7-0.7,1.4-0.9,2.2l-3.2,15.8h-9.8c-0.8,0-1.5,0.2-2.2,0.4v0c-0.7,0.3-1.3,0.7-1.9,1.3
	c-0.5,0.5-1,1.2-1.3,1.9c-0.2,0.5-0.6,2.7-0.6,3.2h-10.5V61.9C116.1,56.7,117.8,51.9,120.5,48z"/>
<path class="st0" d="M187.7,50.4h-35.4c-1.3,0-2.3,0.9-2.5,2.1l-4,20.1c-0.2,1.1,0.8,2.1,2,2.1h35.8c1.3,0,2.3-0.9,2.5-2.1l3.6-20.1
	C190,51.4,189,50.4,187.7,50.4z"/>
<g>
	<g>
		<path class="st3" d="M423.9,304.5h-4.3v-5h5.2l1.4-8.4h-4.8v-5h5.7l1.3-7.6h5.2l-1.3,7.6h7.9l1.3-7.6h5.2l-1.3,7.6h4.3v5h-5.2
			l-1.4,8.4h4.8v5h-5.7l-1.4,7.8h-5.2l1.4-7.8H429l-1.3,7.8h-5.2L423.9,304.5z M437.8,299.5l1.4-8.4h-7.9l-1.4,8.4H437.8z"/>
	</g>
</g>
</svg>
