<?xml version="1.0" encoding="utf-8"?>
<!-- Generator: Adobe Illustrator 21.1.0, SVG Export Plug-In . SVG Version: 6.00 Build 0)  -->
<svg version="1.1" id="Layer_1" xmlns="http://www.w3.org/2000/svg" xmlns:xlink="http://www.w3.org/1999/xlink" x="0px" y="0px"
	 viewBox="0 0 203.6 291.9" style="enable-background:new 0 0 203.6 291.9;" xml:space="preserve">
<style type="text/css">
	.st0{fill:#00D191;}
	.st1{fill:#5E5E5E;}
</style>
<polygon class="st0" points="7.6,75.5 196,75.5 203.6,75.5 203.6,83.1 203.6,271.6 203.6,279.1 196,279.1 137,279.1 148.3,264 
	188.5,264 188.5,90.7 15.1,90.7 15.1,264 55.3,264 66.6,279.1 7.6,279.1 0,279.1 0,271.6 0,83.1 0,75.5 "/>
<path class="st1" d="M101.8,109.6c-39.3,0-71.2,31.9-71.2,71.2c0,16,5.3,30.8,14.2,42.7l57,68.4l57-68.4
	c8.9-11.9,14.2-26.7,14.2-42.7C173,141.5,141.1,109.6,101.8,109.6L101.8,109.6z M101.8,218c-20.5,0-37.2-16.6-37.2-37.2
	c0-20.5,16.6-37.2,37.2-37.2c20.5,0,37.2,16.6,37.2,37.2C139,201.3,122.3,218,101.8,218z"/>
<path class="st0" d="M62.1,0h1.4h1.3C72.4,0,79,5.9,78.6,13.2L78,22.6c-0.3,5.6-4.8,10.4-10.8,12.3c-2.5,0.8-3.8,1-6.3,0.4
	c-6.5-1.5-11.7-6.7-12.1-12.7l-0.6-9.5C47.8,5.9,54.5,0,62.1,0z"/>
<path class="st0" d="M77.5,70.7H66.4c0.2-0.5,0.3-1,0.3-1.5c0-0.3,0-0.5-0.1-0.8l0,0v-0.2h9.5c0.4,0,0.7,0.2,1,0.4
	c0.2,0.3,0.4,0.6,0.4,1C77.5,69.6,77.5,70.7,77.5,70.7z"/>
<path class="st0" d="M88.1,44c-2.6-3.7-6.3-6.6-10.6-8.1c-1,0.9-2.2,1.7-3.3,2.3c-1.4,0.8-3,1.5-4.6,2.1l0,0
	c-0.9,0.3-1.6,0.5-2.4,0.7s-1.6,0.3-2.5,0.4c-0.9,0.1-1.8,0.1-2.7,0l0,0c-0.9-0.1-1.8-0.3-2.8-0.5c-1.7-0.4-3.4-1.1-5-1.8l0,0
	c-1.3-0.6-2.5-1.4-3.7-2.3c-1.7,0.8-3.2,1.8-4.7,3l0,0c-0.9,0.7-1.7,1.6-2.5,2.5h12.6c0.9,0,1.7,0.2,2.5,0.4l0,0
	c0.8,0.3,1.5,0.7,2.2,1.2l0,0c0.6,0.5,1.1,1.1,1.6,1.8l0,0c0.4,0.7,0.7,1.4,0.9,2.2l3.2,15.8H76c0.8,0,1.5,0.2,2.2,0.4l0,0
	c0.7,0.3,1.3,0.7,1.9,1.3c0.5,0.5,1,1.2,1.3,1.9c0.2,0.5,0.6,2.7,0.6,3.2h10.5V57.9C92.5,52.7,90.8,47.9,88.1,44z"/>
<path class="st0" d="M20.8,46.4h35.4c1.3,0,2.3,0.9,2.5,2.1l4,20.1c0.2,1.1-0.8,2.1-2,2.1H24.9c-1.3,0-2.3-0.9-2.5-2.1l-3.6-20.1
	C18.6,47.4,19.6,46.4,20.8,46.4z"/>
<path class="st0" d="M141.5,0h-1.4h-1.4c-7.6,0-14.2,5.9-13.8,13.2l0.6,9.5c0.3,5.6,4.8,10.4,10.8,12.3c2.5,0.8,3.8,1,6.3,0.4
	c6.5-1.5,11.7-6.7,12.1-12.7l0.6-9.5C155.8,5.9,149.1,0,141.5,0z"/>
<path class="st0" d="M126.1,70.7h11.1c-0.2-0.5-0.3-1-0.3-1.5c0-0.3,0-0.5,0.1-0.8l0,0v-0.2h-9.5c-0.4,0-0.7,0.2-1,0.4
	c-0.2,0.3-0.4,0.6-0.4,1L126.1,70.7L126.1,70.7z"/>
<path class="st0" d="M115.5,44c2.6-3.7,6.3-6.6,10.6-8.1c1,0.9,2.2,1.7,3.3,2.3c1.4,0.8,3,1.5,4.6,2.1l0,0c0.9,0.3,1.6,0.5,2.4,0.7
	c0.8,0.2,1.6,0.3,2.5,0.4c0.9,0.1,1.8,0.1,2.7,0l0,0c0.9-0.1,1.8-0.3,2.8-0.5c1.7-0.4,3.4-1.1,5-1.8l0,0c1.3-0.6,2.5-1.4,3.7-2.3
	c1.7,0.8,3.2,1.8,4.7,3l0,0c0.9,0.7,1.7,1.6,2.5,2.5h-12.6c-0.9,0-1.7,0.2-2.5,0.4l0,0c-0.8,0.3-1.5,0.7-2.2,1.2l0,0
	c-0.6,0.5-1.1,1.1-1.6,1.8l0,0c-0.4,0.7-0.7,1.4-0.9,2.2l-3.2,15.8h-9.8c-0.8,0-1.5,0.2-2.2,0.4l0,0c-0.7,0.3-1.3,0.7-1.9,1.3
	c-0.5,0.5-1,1.2-1.3,1.9c-0.2,0.5-0.6,2.7-0.6,3.2H111V57.9C111.1,52.7,112.8,47.9,115.5,44z"/>
<path class="st0" d="M182.7,46.4h-35.4c-1.3,0-2.3,0.9-2.5,2.1l-4,20.1c-0.2,1.1,0.8,2.1,2,2.1h35.8c1.3,0,2.3-0.9,2.5-2.1l3.6-20.1
	C185,47.4,184,46.4,182.7,46.4z"/>
</svg>
